<?xml version="1.0" standalone="no"?>
<!DOCTYPE svg PUBLIC "-//W3C//DTD SVG 20010904//EN"
 "http://www.w3.org/TR/2001/REC-SVG-20010904/DTD/svg10.dtd">
<svg version="1.0" xmlns="http://www.w3.org/2000/svg"
 width="300.000000pt" height="146.000000pt" viewBox="0 0 300.000000 146.000000"
 preserveAspectRatio="xMidYMid meet">
<metadata>
Created by potrace 1.10, written by Peter Selinger 2001-2011
</metadata>
<g transform="translate(0.000000,146.000000) scale(0.100000,-0.100000)"
fill="#FFFFFF" stroke="none">
<path d="M2022 1060 c-35 -15 -48 -54 -28 -85 13 -20 24 -25 61 -25 49 0 75
19 75 54 0 48 -56 77 -108 56z"/>
<path d="M1630 785 l0 -275 65 0 65 0 0 275 0 275 -65 0 -65 0 0 -275z m90 0
l0 -225 -25 0 -24 0 -3 188 c-4 252 -3 262 28 262 l24 0 0 -225z"/>
<path d="M1805 785 l0 -275 68 0 67 0 0 275 0 275 -67 0 -68 0 0 -275z m95 0
l0 -225 -24 0 c-32 0 -34 14 -35 230 0 211 1 220 34 220 l25 0 0 -225z"/>
<path d="M1275 973 c-16 -31 -31 -60 -33 -65 -2 -4 29 -8 68 -8 39 0 70 3 68
8 -25 53 -63 122 -68 122 -3 0 -18 -26 -35 -57z"/>
<path d="M600 965 l0 -55 66 0 65 0 -3 -200 -3 -200 70 0 70 0 -3 200 -3 200
65 0 66 0 0 55 0 55 -195 0 -195 0 0 -55z m328 3 c-3 -7 -19 -15 -37 -19 -61
-13 -65 -30 -62 -234 0 -60 -1 -120 -4 -131 -5 -24 -41 -38 -52 -21 -4 7 -8
82 -9 167 -1 85 -2 160 -3 166 -2 23 -43 54 -71 54 -29 0 -45 12 -33 24 3 3
67 6 141 6 101 0 133 -3 130 -12z"/>
<path d="M1990 710 l0 -200 65 0 65 0 0 200 0 200 -65 0 -65 0 0 -200z m90 44
c3 -60 4 -128 2 -151 -3 -38 -6 -43 -28 -43 l-24 0 0 148 c0 82 3 151 6 154 3
3 13 5 22 4 14 -2 18 -20 22 -112z"/>
<path d="M1195 833 c-11 -21 -21 -41 -23 -45 -2 -5 25 -8 60 -8 l63 0 0 45 0
45 -41 0 c-37 0 -42 -3 -59 -37z"/>
<path d="M1320 825 l0 -45 65 0 c36 0 65 2 65 5 0 3 -11 23 -25 45 -23 36 -30
40 -65 40 l-40 0 0 -45z"/>
<path d="M1125 710 l-25 -50 30 0 c29 0 30 1 30 50 0 28 -2 50 -5 50 -2 0 -16
-22 -30 -50z"/>
<path d="M1458 754 c-3 -5 -3 -28 0 -51 4 -40 6 -43 33 -43 l29 0 -19 38 c-29
54 -38 65 -43 56z"/>
<path d="M1190 705 l0 -45 120 0 120 0 0 45 0 45 -120 0 -120 0 0 -45z"/>
<path d="M1056 590 c-14 -22 -26 -42 -26 -45 0 -3 60 -5 133 -5 l134 0 -1 45
-1 45 -106 0 -106 0 -27 -40z"/>
<path d="M1320 585 l0 -45 136 0 135 0 -25 43 -26 42 -110 3 -110 3 0 -46z"/>
<path d="M1165 399 c4 -24 9 -47 12 -52 8 -14 23 4 23 29 0 35 16 30 24 -8 8
-42 23 -26 30 32 l6 45 -14 -40 -13 -40 -7 38 c-4 20 -10 37 -15 37 -4 0 -12
-17 -18 -37 l-10 -38 -2 32 c0 17 -6 35 -12 39 -8 5 -9 -6 -4 -37z"/>
<path d="M1280 390 l0 -51 36 3 c20 1 38 8 41 15 7 18 33 16 50 -4 13 -16 14
-16 9 9 -10 45 -25 78 -35 78 -6 0 -16 -18 -22 -40 -11 -34 -16 -40 -41 -40
-34 0 -39 27 -5 33 l22 4 -22 2 c-33 2 -29 29 5 34 25 4 25 4 -5 6 l-33 1 0
-50z"/>
<path d="M1430 389 c0 -31 4 -48 10 -44 6 3 10 16 10 28 1 21 1 21 15 3 8 -10
16 -24 18 -30 2 -6 8 -8 12 -4 4 4 2 14 -5 23 -10 12 -10 18 0 30 19 23 4 45
-30 45 -29 0 -30 -1 -30 -51z"/>
<path d="M1517 433 c-14 -14 -6 -34 18 -43 14 -5 25 -15 25 -21 0 -7 -10 -9
-25 -7 -27 6 -34 -6 -10 -16 41 -15 63 34 25 54 -11 6 -20 15 -20 21 0 6 9 8
20 4 11 -4 20 -2 20 4 0 12 -43 15 -53 4z"/>
</g>
</svg>
